{"glyphs":{"0":{"ha":1035,"x_min":0,"x_max":0,"o":"m 517 -25 b 1012 486 832 -25 1012 154 b 517 998 1012 818 832 998 b 23 486 203 998 23 818 b 517 -25 23 154 203 -25 z m 517 244 b 339 486 399 244 339 329 b 517 728 339 644 399 728 b 696 486 635 728 696 644 b 517 244 696 329 635 244 z "},"1":{"ha":885,"x_min":0,"x_max":0,"o":"m 633 243 l 633 972 l 313 972 b 69 868 231 896 149 868 l 69 600 b 313 666 149 600 243 608 l 313 243 l 46 243 l 46 0 l 839 0 l 839 243 z "},"2":{"ha":944,"x_min":0,"x_max":0,"o":"m 916 682 b 476 998 916 890 753 998 b 38 638 185 998 38 873 l 351 638 b 490 743 348 730 433 743 b 603 666 575 743 603 709 b 29 145 603 514 29 560 l 29 0 l 912 0 l 912 243 l 404 243 b 916 682 492 404 916 347 z "},"3":{"ha":980,"x_min":0,"x_max":0,"o":"m 478 -25 b 951 269 772 -25 951 83 b 781 501 951 394 878 472 l 781 517 b 920 723 858 554 920 613 b 487 998 920 889 775 998 b 51 644 204 998 49 889 l 336 644 b 485 745 336 719 394 745 b 631 668 569 745 631 722 b 466 583 631 641 616 583 l 413 583 l 413 403 l 466 403 b 634 308 618 403 634 334 b 471 227 634 256 575 227 b 316 325 380 227 321 247 l 29 325 b 478 -25 27 78 174 -25 z "},"4":{"ha":692,"x_min":0,"x_max":0,"o":"m 117 228 l 117 228 b 153 170 147 228 153 207 b 117 112 153 134 147 112 b 106 113 113 112 109 112 l 106 227 b 117 228 110 228 113 228 z m 293 186 l 247 186 l 247 226 l 301 226 l 301 255 l 213 255 l 213 87 l 301 87 l 301 115 l 247 115 l 247 159 l 293 159 z m 115 84 l 115 84 b 186 170 167 84 186 111 b 116 257 186 228 168 257 b 73 252 104 257 88 255 l 73 87 b 115 84 88 84 105 84 z m 331 255 l 331 255 b 323 87 328 214 324 141 l 355 87 b 358 207 355 126 356 168 l 359 207 l 382 112 l 413 112 l 436 207 b 440 87 439 168 440 126 l 473 87 b 466 255 471 141 469 214 l 420 255 l 398 162 l 376 255 z m 558 84 l 558 84 b 620 170 604 84 620 111 b 558 257 620 229 604 257 b 497 170 512 257 497 229 b 558 84 497 111 512 84 z m 558 228 b 587 170 582 228 587 208 b 558 112 587 133 582 112 b 530 170 535 112 530 133 b 558 228 530 208 535 228 z m 546 574 l 546 574 b 366 358 450 574 366 358 b 558 441 414 405 475 432 b 618 501 582 444 618 465 b 546 574 618 525 606 574 z m 161 514 l 161 514 b 89 441 113 514 89 478 b 161 381 89 405 125 381 b 341 297 234 381 294 358 b 161 514 341 297 270 514 z m 363 686 l 363 686 b 260 685 329 720 286 711 b 271 591 236 659 245 617 b 341 405 323 542 350 481 b 363 686 341 405 441 611 z "},"5":{"ha":955,"x_min":0,"x_max":0,"o":"m 468 -25 b 926 329 771 -25 926 110 b 569 646 926 543 760 646 b 363 598 455 646 392 618 l 391 730 l 844 730 l 844 972 l 154 972 l 44 400 l 326 400 b 476 463 347 425 385 463 b 626 346 580 463 626 413 b 465 225 626 284 580 225 b 319 318 390 225 331 251 l 35 318 b 468 -25 30 89 171 -25 z "},"6":{"ha":951,"x_min":0,"x_max":0,"o":"m 539 623 b 324 583 455 623 377 612 b 497 759 318 731 416 759 b 654 674 571 759 641 737 l 909 674 b 497 998 914 894 749 998 b 23 491 241 998 23 870 b 485 -25 23 213 118 -25 b 928 313 780 -25 928 110 b 539 623 928 531 753 623 z m 481 211 b 326 321 378 211 326 258 b 481 428 326 390 380 428 b 640 321 584 428 640 385 b 481 211 640 258 584 211 z "},"7":{"ha":902,"x_min":0,"x_max":0,"o":"m 29 972 l 29 714 l 543 714 l 71 0 l 409 0 l 878 714 l 878 972 z "},"8":{"ha":993,"x_min":0,"x_max":0,"o":"m 497 -25 b 964 282 852 -25 964 124 b 797 535 964 395 907 478 l 797 553 b 896 734 855 589 896 659 b 497 998 896 884 770 998 b 100 734 223 998 100 884 b 196 553 100 659 138 589 l 196 535 b 29 282 86 478 29 395 b 497 -25 29 124 141 -25 z m 497 613 b 380 696 414 613 380 646 b 497 780 380 750 421 780 b 613 696 572 780 613 750 b 497 613 613 646 579 613 z m 497 215 b 340 323 378 215 340 264 b 497 431 340 381 380 431 b 653 323 613 431 653 381 b 497 215 653 264 615 215 z "},"9":{"ha":951,"x_min":0,"x_max":0,"o":"m 466 998 b 23 660 171 998 23 862 b 412 350 23 441 198 350 b 627 389 497 350 574 360 b 455 213 633 241 536 213 b 297 299 381 213 310 235 l 43 299 b 455 -25 37 79 203 -25 b 928 481 711 -25 928 102 b 466 998 928 759 833 998 z m 470 544 b 311 652 367 544 311 587 b 470 762 311 714 367 762 b 625 652 573 762 625 714 b 470 544 625 582 572 544 z "}," ":{"ha":301,"x_min":0,"x_max":0,"o":""},"!":{"ha":692,"x_min":0,"x_max":0,"o":"m 117 228 l 117 228 b 153 170 147 228 153 207 b 117 112 153 134 147 112 b 106 113 113 112 109 112 l 106 227 b 117 228 110 228 113 228 z m 293 186 l 247 186 l 247 226 l 301 226 l 301 255 l 213 255 l 213 87 l 301 87 l 301 115 l 247 115 l 247 159 l 293 159 z m 115 84 l 115 84 b 186 170 167 84 186 111 b 116 257 186 228 168 257 b 73 252 104 257 88 255 l 73 87 b 115 84 88 84 105 84 z m 331 255 l 331 255 b 323 87 328 214 324 141 l 355 87 b 358 207 355 126 356 168 l 359 207 l 382 112 l 413 112 l 436 207 b 440 87 439 168 440 126 l 473 87 b 466 255 471 141 469 214 l 420 255 l 398 162 l 376 255 z m 558 84 l 558 84 b 620 170 604 84 620 111 b 558 257 620 229 604 257 b 497 170 512 257 497 229 b 558 84 497 111 512 84 z m 558 228 b 587 170 582 228 587 208 b 558 112 587 133 582 112 b 530 170 535 112 530 133 b 558 228 530 208 535 228 z m 546 574 l 546 574 b 366 358 450 574 366 358 b 558 441 414 405 475 432 b 618 501 582 444 618 465 b 546 574 618 525 606 574 z m 161 514 l 161 514 b 89 441 113 514 89 478 b 161 381 89 405 125 381 b 341 297 234 381 294 358 b 161 514 341 297 270 514 z m 363 686 l 363 686 b 260 685 329 720 286 711 b 271 591 236 659 245 617 b 341 405 323 542 350 481 b 363 686 341 405 441 611 z "},"\"":{"ha":692,"x_min":0,"x_max":0,"o":"m 117 228 l 117 228 b 153 170 147 228 153 207 b 117 112 153 134 147 112 b 106 113 113 112 109 112 l 106 227 b 117 228 110 228 113 228 z m 293 186 l 247 186 l 247 226 l 301 226 l 301 255 l 213 255 l 213 87 l 301 87 l 301 115 l 247 115 l 247 159 l 293 159 z m 115 84 l 115 84 b 186 170 167 84 186 111 b 116 257 186 228 168 257 b 73 252 104 257 88 255 l 73 87 b 115 84 88 84 105 84 z m 331 255 l 331 255 b 323 87 328 214 324 141 l 355 87 b 358 207 355 126 356 168 l 359 207 l 382 112 l 413 112 l 436 207 b 440 87 439 168 440 126 l 473 87 b 466 255 471 141 469 214 l 420 255 l 398 162 l 376 255 z m 558 84 l 558 84 b 620 170 604 84 620 111 b 558 257 620 229 604 257 b 497 170 512 257 497 229 b 558 84 497 111 512 84 z m 558 228 b 587 170 582 228 587 208 b 558 112 587 133 582 112 b 530 170 535 112 530 133 b 558 228 530 208 535 228 z m 546 574 l 546 574 b 366 358 450 574 366 358 b 558 441 414 405 475 432 b 618 501 582 444 618 465 b 546 574 618 525 606 574 z m 161 514 l 161 514 b 89 441 113 514 89 478 b 161 381 89 405 125 381 b 341 297 234 381 294 358 b 161 514 341 297 270 514 z m 363 686 l 363 686 b 260 685 329 720 286 711 b 271 591 236 659 245 617 b 341 405 323 542 350 481 b 363 686 341 405 441 611 z "},"#":{"ha":692,"x_min":0,"x_max":0,"o":"m 117 228 l 117 228 b 153 170 147 228 153 207 b 117 112 153 134 147 112 b 106 113 113 112 109 112 l 106 227 b 117 228 110 228 113 228 z m 293 186 l 247 186 l 247 226 l 301 226 l 301 255 l 213 255 l 213 87 l 301 87 l 301 115 l 247 115 l 247 159 l 293 159 z m 115 84 l 115 84 b 186 170 167 84 186 111 b 116 257 186 228 168 257 b 73 252 104 257 88 255 l 73 87 b 115 84 88 84 105 84 z m 331 255 l 331 255 b 323 87 328 214 324 141 l 355 87 b 358 207 355 126 356 168 l 359 207 l 382 112 l 413 112 l 436 207 b 440 87 439 168 440 126 l 473 87 b 466 255 471 141 469 214 l 420 255 l 398 162 l 376 255 z m 558 84 l 558 84 b 620 170 604 84 620 111 b 558 257 620 229 604 257 b 497 170 512 257 497 229 b 558 84 497 111 512 84 z m 558 228 b 587 170 582 228 587 208 b 558 112 587 133 582 112 b 530 170 535 112 530 133 b 558 228 530 208 535 228 z m 546 574 l 546 574 b 366 358 450 574 366 358 b 558 441 414 405 475 432 b 618 501 582 444 618 465 b 546 574 618 525 606 574 z m 161 514 l 161 514 b 89 441 113 514 89 478 b 161 381 89 405 125 381 b 341 297 234 381 294 358 b 161 514 341 297 270 514 z m 363 686 l 363 686 b 260 685 329 720 286 711 b 271 591 236 659 245 617 b 341 405 323 542 350 481 b 363 686 341 405 441 611 z "},"$":{"ha":692,"x_min":0,"x_max":0,"o":"m 117 228 l 117 228 b 153 170 147 228 153 207 b 117 112 153 134 147 112 b 106 113 113 112 109 112 l 106 227 b 117 228 110 228 113 228 z m 293 186 l 247 186 l 247 226 l 301 226 l 301 255 l 213 255 l 213 87 l 301 87 l 301 115 l 247 115 l 247 159 l 293 159 z m 115 84 l 115 84 b 186 170 167 84 186 111 b 116 257 186 228 168 257 b 73 252 104 257 88 255 l 73 87 b 115 84 88 84 105 84 z m 331 255 l 331 255 b 323 87 328 214 324 141 l 355 87 b 358 207 355 126 356 168 l 359 207 l 382 112 l 413 112 l 436 207 b 440 87 439 168 440 126 l 473 87 b 466 255 471 141 469 214 l 420 255 l 398 162 l 376 255 z m 558 84 l 558 84 b 620 170 604 84 620 111 b 558 257 620 229 604 257 b 497 170 512 257 497 229 b 558 84 497 111 512 84 z m 558 228 b 587 170 582 228 587 208 b 558 112 587 133 582 112 b 530 170 535 112 530 133 b 558 228 530 208 535 228 z m 546 574 l 546 574 b 366 358 450 574 366 358 b 558 441 414 405 475 432 b 618 501 582 444 618 465 b 546 574 618 525 606 574 z m 161 514 l 161 514 b 89 441 113 514 89 478 b 161 381 89 405 125 381 b 341 297 234 381 294 358 b 161 514 341 297 270 514 z m 363 686 l 363 686 b 260 685 329 720 286 711 b 271 591 236 659 245 617 b 341 405 323 542 350 481 b 363 686 341 405 441 611 z "},"%":{"ha":692,"x_min":0,"x_max":0,"o":"m 117 228 l 117 228 b 153 170 147 228 153 207 b 117 112 153 134 147 112 b 106 113 113 112 109 112 l 106 227 b 117 228 110 228 113 228 z m 293 186 l 247 186 l 247 226 l 301 226 l 301 255 l 213 255 l 213 87 l 301 87 l 301 115 l 247 115 l 247 159 l 293 159 z m 115 84 l 115 84 b 186 170 167 84 186 111 b 116 257 186 228 168 257 b 73 252 104 257 88 255 l 73 87 b 115 84 88 84 105 84 z m 331 255 l 331 255 b 323 87 328 214 324 141 l 355 87 b 358 207 355 126 356 168 l 359 207 l 382 112 l 413 112 l 436 207 b 440 87 439 168 440 126 l 473 87 b 466 255 471 141 469 214 l 420 255 l 398 162 l 376 255 z m 558 84 l 558 84 b 620 170 604 84 620 111 b 558 257 620 229 604 257 b 497 170 512 257 497 229 b 558 84 497 111 512 84 z m 558 228 b 587 170 582 228 587 208 b 558 112 587 133 582 112 b 530 170 535 112 530 133 b 558 228 530 208 535 228 z m 546 574 l 546 574 b 366 358 450 574 366 358 b 558 441 414 405 475 432 b 618 501 582 444 618 465 b 546 574 618 525 606 574 z m 161 514 l 161 514 b 89 441 113 514 89 478 b 161 381 89 405 125 381 b 341 297 234 381 294 358 b 161 514 341 297 270 514 z m 363 686 l 363 686 b 260 685 329 720 286 711 b 271 591 236 659 245 617 b 341 405 323 542 350 481 b 363 686 341 405 441 611 z "},"&":{"ha":692,"x_min":0,"x_max":0,"o":"m 117 228 l 117 228 b 153 170 147 228 153 207 b 117 112 153 134 147 112 b 106 113 113 112 109 112 l 106 227 b 117 228 110 228 113 228 z m 293 186 l 247 186 l 247 226 l 301 226 l 301 255 l 213 255 l 213 87 l 301 87 l 301 115 l 247 115 l 247 159 l 293 159 z m 115 84 l 115 84 b 186 170 167 84 186 111 b 116 257 186 228 168 257 b 73 252 104 257 88 255 l 73 87 b 115 84 88 84 105 84 z m 331 255 l 331 255 b 323 87 328 214 324 141 l 355 87 b 358 207 355 126 356 168 l 359 207 l 382 112 l 413 112 l 436 207 b 440 87 439 168 440 126 l 473 87 b 466 255 471 141 469 214 l 420 255 l 398 162 l 376 255 z m 558 84 l 558 84 b 620 170 604 84 620 111 b 558 257 620 229 604 257 b 497 170 512 257 497 229 b 558 84 497 111 512 84 z m 558 228 b 587 170 582 228 587 208 b 558 112 587 133 582 112 b 530 170 535 112 530 133 b 558 228 530 208 535 228 z m 546 574 l 546 574 b 366 358 450 574 366 358 b 558 441 414 405 475 432 b 618 501 582 444 618 465 b 546 574 618 525 606 574 z m 161 514 l 161 514 b 89 441 113 514 89 478 b 161 381 89 405 125 381 b 341 297 234 381 294 358 b 161 514 341 297 270 514 z m 363 686 l 363 686 b 260 685 329 720 286 711 b 271 591 236 659 245 617 b 341 405 323 542 350 481 b 363 686 341 405 441 611 z "},"'":{"ha":692,"x_min":0,"x_max":0,"o":"m 117 228 l 117 228 b 153 170 147 228 153 207 b 117 112 153 134 147 112 b 106 113 113 112 109 112 l 106 227 b 117 228 110 228 113 228 z m 293 186 l 247 186 l 247 226 l 301 226 l 301 255 l 213 255 l 213 87 l 301 87 l 301 115 l 247 115 l 247 159 l 293 159 z m 115 84 l 115 84 b 186 170 167 84 186 111 b 116 257 186 228 168 257 b 73 252 104 257 88 255 l 73 87 b 115 84 88 84 105 84 z m 331 255 l 331 255 b 323 87 328 214 324 141 l 355 87 b 358 207 355 126 356 168 l 359 207 l 382 112 l 413 112 l 436 207 b 440 87 439 168 440 126 l 473 87 b 466 255 471 141 469 214 l 420 255 l 398 162 l 376 255 z m 558 84 l 558 84 b 620 170 604 84 620 111 b 558 257 620 229 604 257 b 497 170 512 257 497 229 b 558 84 497 111 512 84 z m 558 228 b 587 170 582 228 587 208 b 558 112 587 133 582 112 b 530 170 535 112 530 133 b 558 228 530 208 535 228 z m 546 574 l 546 574 b 366 358 450 574 366 358 b 558 441 414 405 475 432 b 618 501 582 444 618 465 b 546 574 618 525 606 574 z m 161 514 l 161 514 b 89 441 113 514 89 478 b 161 381 89 405 125 381 b 341 297 234 381 294 358 b 161 514 341 297 270 514 z m 363 686 l 363 686 b 260 685 329 720 286 711 b 271 591 236 659 245 617 b 341 405 323 542 350 481 b 363 686 341 405 441 611 z "},"(":{"ha":692,"x_min":0,"x_max":0,"o":"m 117 228 l 117 228 b 153 170 147 228 153 207 b 117 112 153 134 147 112 b 106 113 113 112 109 112 l 106 227 b 117 228 110 228 113 228 z m 293 186 l 247 186 l 247 226 l 301 226 l 301 255 l 213 255 l 213 87 l 301 87 l 301 115 l 247 115 l 247 159 l 293 159 z m 115 84 l 115 84 b 186 170 167 84 186 111 b 116 257 186 228 168 257 b 73 252 104 257 88 255 l 73 87 b 115 84 88 84 105 84 z m 331 255 l 331 255 b 323 87 328 214 324 141 l 355 87 b 358 207 355 126 356 168 l 359 207 l 382 112 l 413 112 l 436 207 b 440 87 439 168 440 126 l 473 87 b 466 255 471 141 469 214 l 420 255 l 398 162 l 376 255 z m 558 84 l 558 84 b 620 170 604 84 620 111 b 558 257 620 229 604 257 b 497 170 512 257 497 229 b 558 84 497 111 512 84 z m 558 228 b 587 170 582 228 587 208 b 558 112 587 133 582 112 b 530 170 535 112 530 133 b 558 228 530 208 535 228 z m 546 574 l 546 574 b 366 358 450 574 366 358 b 558 441 414 405 475 432 b 618 501 582 444 618 465 b 546 574 618 525 606 574 z m 161 514 l 161 514 b 89 441 113 514 89 478 b 161 381 89 405 125 381 b 341 297 234 381 294 358 b 161 514 341 297 270 514 z m 363 686 l 363 686 b 260 685 329 720 286 711 b 271 591 236 659 245 617 b 341 405 323 542 350 481 b 363 686 341 405 441 611 z "},")":{"ha":692,"x_min":0,"x_max":0,"o":"m 117 228 l 117 228 b 153 170 147 228 153 207 b 117 112 153 134 147 112 b 106 113 113 112 109 112 l 106 227 b 117 228 110 228 113 228 z m 293 186 l 247 186 l 247 226 l 301 226 l 301 255 l 213 255 l 213 87 l 301 87 l 301 115 l 247 115 l 247 159 l 293 159 z m 115 84 l 115 84 b 186 170 167 84 186 111 b 116 257 186 228 168 257 b 73 252 104 257 88 255 l 73 87 b 115 84 88 84 105 84 z m 331 255 l 331 255 b 323 87 328 214 324 141 l 355 87 b 358 207 355 126 356 168 l 359 207 l 382 112 l 413 112 l 436 207 b 440 87 439 168 440 126 l 473 87 b 466 255 471 141 469 214 l 420 255 l 398 162 l 376 255 z m 558 84 l 558 84 b 620 170 604 84 620 111 b 558 257 620 229 604 257 b 497 170 512 257 497 229 b 558 84 497 111 512 84 z m 558 228 b 587 170 582 228 587 208 b 558 112 587 133 582 112 b 530 170 535 112 530 133 b 558 228 530 208 535 228 z m 546 574 l 546 574 b 366 358 450 574 366 358 b 558 441 414 405 475 432 b 618 501 582 444 618 465 b 546 574 618 525 606 574 z m 161 514 l 161 514 b 89 441 113 514 89 478 b 161 381 89 405 125 381 b 341 297 234 381 294 358 b 161 514 341 297 270 514 z m 363 686 l 363 686 b 260 685 329 720 286 711 b 271 591 236 659 245 617 b 341 405 323 542 350 481 b 363 686 341 405 441 611 z "},"*":{"ha":692,"x_min":0,"x_max":0,"o":"m 117 228 l 117 228 b 153 170 147 228 153 207 b 117 112 153 134 147 112 b 106 113 113 112 109 112 l 106 227 b 117 228 110 228 113 228 z m 293 186 l 247 186 l 247 226 l 301 226 l 301 255 l 213 255 l 213 87 l 301 87 l 301 115 l 247 115 l 247 159 l 293 159 z m 115 84 l 115 84 b 186 170 167 84 186 111 b 116 257 186 228 168 257 b 73 252 104 257 88 255 l 73 87 b 115 84 88 84 105 84 z m 331 255 l 331 255 b 323 87 328 214 324 141 l 355 87 b 358 207 355 126 356 168 l 359 207 l 382 112 l 413 112 l 436 207 b 440 87 439 168 440 126 l 473 87 b 466 255 471 141 469 214 l 420 255 l 398 162 l 376 255 z m 558 84 l 558 84 b 620 170 604 84 620 111 b 558 257 620 229 604 257 b 497 170 512 257 497 229 b 558 84 497 111 512 84 z m 558 228 b 587 170 582 228 587 208 b 558 112 587 133 582 112 b 530 170 535 112 530 133 b 558 228 530 208 535 228 z m 546 574 l 546 574 b 366 358 450 574 366 358 b 558 441 414 405 475 432 b 618 501 582 444 618 465 b 546 574 618 525 606 574 z m 161 514 l 161 514 b 89 441 113 514 89 478 b 161 381 89 405 125 381 b 341 297 234 381 294 358 b 161 514 341 297 270 514 z m 363 686 l 363 686 b 260 685 329 720 286 711 b 271 591 236 659 245 617 b 341 405 323 542 350 481 b 363 686 341 405 441 611 z "},"+":{"ha":692,"x_min":0,"x_max":0,"o":"m 117 228 l 117 228 b 153 170 147 228 153 207 b 117 112 153 134 147 112 b 106 113 113 112 109 112 l 106 227 b 117 228 110 228 113 228 z m 293 186 l 247 186 l 247 226 l 301 226 l 301 255 l 213 255 l 213 87 l 301 87 l 301 115 l 247 115 l 247 159 l 293 159 z m 115 84 l 115 84 b 186 170 167 84 186 111 b 116 257 186 228 168 257 b 73 252 104 257 88 255 l 73 87 b 115 84 88 84 105 84 z m 331 255 l 331 255 b 323 87 328 214 324 141 l 355 87 b 358 207 355 126 356 168 l 359 207 l 382 112 l 413 112 l 436 207 b 440 87 439 168 440 126 l 473 87 b 466 255 471 141 469 214 l 420 255 l 398 162 l 376 255 z m 558 84 l 558 84 b 620 170 604 84 620 111 b 558 257 620 229 604 257 b 497 170 512 257 497 229 b 558 84 497 111 512 84 z m 558 228 b 587 170 582 228 587 208 b 558 112 587 133 582 112 b 530 170 535 112 530 133 b 558 228 530 208 535 228 z m 546 574 l 546 574 b 366 358 450 574 366 358 b 558 441 414 405 475 432 b 618 501 582 444 618 465 b 546 574 618 525 606 574 z m 161 514 l 161 514 b 89 441 113 514 89 478 b 161 381 89 405 125 381 b 341 297 234 381 294 358 b 161 514 341 297 270 514 z m 363 686 l 363 686 b 260 685 329 720 286 711 b 271 591 236 659 245 617 b 341 405 323 542 350 481 b 363 686 341 405 441 611 z "},",":{"ha":447,"x_min":0,"x_max":0,"o":"m 146 -275 l 343 -275 b 412 208 372 -221 412 -59 l 412 267 l 35 267 l 35 0 l 161 0 b 146 -275 162 -78 159 -186 z "},"-":{"ha":692,"x_min":0,"x_max":0,"o":"m 117 228 l 117 228 b 153 170 147 228 153 207 b 117 112 153 134 147 112 b 106 113 113 112 109 112 l 106 227 b 117 228 110 228 113 228 z m 293 186 l 247 186 l 247 226 l 301 226 l 301 255 l 213 255 l 213 87 l 301 87 l 301 115 l 247 115 l 247 159 l 293 159 z m 115 84 l 115 84 b 186 170 167 84 186 111 b 116 257 186 228 168 257 b 73 252 104 257 88 255 l 73 87 b 115 84 88 84 105 84 z m 331 255 l 331 255 b 323 87 328 214 324 141 l 355 87 b 358 207 355 126 356 168 l 359 207 l 382 112 l 413 112 l 436 207 b 440 87 439 168 440 126 l 473 87 b 466 255 471 141 469 214 l 420 255 l 398 162 l 376 255 z m 558 84 l 558 84 b 620 170 604 84 620 111 b 558 257 620 229 604 257 b 497 170 512 257 497 229 b 558 84 497 111 512 84 z m 558 228 b 587 170 582 228 587 208 b 558 112 587 133 582 112 b 530 170 535 112 530 133 b 558 228 530 208 535 228 z m 546 574 l 546 574 b 366 358 450 574 366 358 b 558 441 414 405 475 432 b 618 501 582 444 618 465 b 546 574 618 525 606 574 z m 161 514 l 161 514 b 89 441 113 514 89 478 b 161 381 89 405 125 381 b 341 297 234 381 294 358 b 161 514 341 297 270 514 z m 363 686 l 363 686 b 260 685 329 720 286 711 b 271 591 236 659 245 617 b 341 405 323 542 350 481 b 363 686 341 405 441 611 z "},".":{"ha":400,"x_min":0,"x_max":0,"o":"m 200 -19 b 360 139 287 -19 360 53 b 200 296 360 225 287 296 b 41 139 113 296 41 225 b 200 -19 41 53 113 -19 z "},"/":{"ha":692,"x_min":0,"x_max":0,"o":"m 117 228 l 117 228 b 153 170 147 228 153 207 b 117 112 153 134 147 112 b 106 113 113 112 109 112 l 106 227 b 117 228 110 228 113 228 z m 293 186 l 247 186 l 247 226 l 301 226 l 301 255 l 213 255 l 213 87 l 301 87 l 301 115 l 247 115 l 247 159 l 293 159 z m 115 84 l 115 84 b 186 170 167 84 186 111 b 116 257 186 228 168 257 b 73 252 104 257 88 255 l 73 87 b 115 84 88 84 105 84 z m 331 255 l 331 255 b 323 87 328 214 324 141 l 355 87 b 358 207 355 126 356 168 l 359 207 l 382 112 l 413 112 l 436 207 b 440 87 439 168 440 126 l 473 87 b 466 255 471 141 469 214 l 420 255 l 398 162 l 376 255 z m 558 84 l 558 84 b 620 170 604 84 620 111 b 558 257 620 229 604 257 b 497 170 512 257 497 229 b 558 84 497 111 512 84 z m 558 228 b 587 170 582 228 587 208 b 558 112 587 133 582 112 b 530 170 535 112 530 133 b 558 228 530 208 535 228 z m 546 574 l 546 574 b 366 358 450 574 366 358 b 558 441 414 405 475 432 b 618 501 582 444 618 465 b 546 574 618 525 606 574 z m 161 514 l 161 514 b 89 441 113 514 89 478 b 161 381 89 405 125 381 b 341 297 234 381 294 358 b 161 514 341 297 270 514 z m 363 686 l 363 686 b 260 685 329 720 286 711 b 271 591 236 659 245 617 b 341 405 323 542 350 481 b 363 686 341 405 441 611 z "},":":{"ha":400,"x_min":0,"x_max":0,"o":"m 200 569 b 360 727 287 569 360 641 b 200 884 360 813 287 884 b 41 727 113 884 41 813 b 200 569 41 641 113 569 z m 200 76 b 360 234 287 76 360 148 b 200 391 360 319 287 391 b 41 234 113 391 41 319 b 200 76 41 148 113 76 z "},";":{"ha":458,"x_min":0,"x_max":0,"o":"m 235 569 b 395 727 322 569 395 641 b 235 884 395 813 322 884 b 75 727 148 884 75 813 b 235 569 75 641 148 569 z m 152 -171 l 348 -171 b 418 313 377 -117 418 45 l 418 372 l 41 372 l 41 104 l 167 104 b 152 -171 168 27 164 -82 z "},"<":{"ha":692,"x_min":0,"x_max":0,"o":"m 117 228 l 117 228 b 153 170 147 228 153 207 b 117 112 153 134 147 112 b 106 113 113 112 109 112 l 106 227 b 117 228 110 228 113 228 z m 293 186 l 247 186 l 247 226 l 301 226 l 301 255 l 213 255 l 213 87 l 301 87 l 301 115 l 247 115 l 247 159 l 293 159 z m 115 84 l 115 84 b 186 170 167 84 186 111 b 116 257 186 228 168 257 b 73 252 104 257 88 255 l 73 87 b 115 84 88 84 105 84 z m 331 255 l 331 255 b 323 87 328 214 324 141 l 355 87 b 358 207 355 126 356 168 l 359 207 l 382 112 l 413 112 l 436 207 b 440 87 439 168 440 126 l 473 87 b 466 255 471 141 469 214 l 420 255 l 398 162 l 376 255 z m 558 84 l 558 84 b 620 170 604 84 620 111 b 558 257 620 229 604 257 b 497 170 512 257 497 229 b 558 84 497 111 512 84 z m 558 228 b 587 170 582 228 587 208 b 558 112 587 133 582 112 b 530 170 535 112 530 133 b 558 228 530 208 535 228 z m 546 574 l 546 574 b 366 358 450 574 366 358 b 558 441 414 405 475 432 b 618 501 582 444 618 465 b 546 574 618 525 606 574 z m 161 514 l 161 514 b 89 441 113 514 89 478 b 161 381 89 405 125 381 b 341 297 234 381 294 358 b 161 514 341 297 270 514 z m 363 686 l 363 686 b 260 685 329 720 286 711 b 271 591 236 659 245 617 b 341 405 323 542 350 481 b 363 686 341 405 441 611 z "},"=":{"ha":692,"x_min":0,"x_max":0,"o":"m 117 228 l 117 228 b 153 170 147 228 153 207 b 117 112 153 134 147 112 b 106 113 113 112 109 112 l 106 227 b 117 228 110 228 113 228 z m 293 186 l 247 186 l 247 226 l 301 226 l 301 255 l 213 255 l 213 87 l 301 87 l 301 115 l 247 115 l 247 159 l 293 159 z m 115 84 l 115 84 b 186 170 167 84 186 111 b 116 257 186 228 168 257 b 73 252 104 257 88 255 l 73 87 b 115 84 88 84 105 84 z m 331 255 l 331 255 b 323 87 328 214 324 141 l 355 87 b 358 207 355 126 356 168 l 359 207 l 382 112 l 413 112 l 436 207 b 440 87 439 168 440 126 l 473 87 b 466 255 471 141 469 214 l 420 255 l 398 162 l 376 255 z m 558 84 l 558 84 b 620 170 604 84 620 111 b 558 257 620 229 604 257 b 497 170 512 257 497 229 b 558 84 497 111 512 84 z m 558 228 b 587 170 582 228 587 208 b 558 112 587 133 582 112 b 530 170 535 112 530 133 b 558 228 530 208 535 228 z m 546 574 l 546 574 b 366 358 450 574 366 358 b 558 441 414 405 475 432 b 618 501 582 444 618 465 b 546 574 618 525 606 574 z m 161 514 l 161 514 b 89 441 113 514 89 478 b 161 381 89 405 125 381 b 341 297 234 381 294 358 b 161 514 341 297 270 514 z m 363 686 l 363 686 b 260 685 329 720 286 711 b 271 591 236 659 245 617 b 341 405 323 542 350 481 b 363 686 341 405 441 611 z "},">":{"ha":692,"x_min":0,"x_max":0,"o":"m 117 228 l 117 228 b 153 170 147 228 153 207 b 117 112 153 134 147 112 b 106 113 113 112 109 112 l 106 227 b 117 228 110 228 113 228 z m 293 186 l 247 186 l 247 226 l 301 226 l 301 255 l 213 255 l 213 87 l 301 87 l 301 115 l 247 115 l 247 159 l 293 159 z m 115 84 l 115 84 b 186 170 167 84 186 111 b 116 257 186 228 168 257 b 73 252 104 257 88 255 l 73 87 b 115 84 88 84 105 84 z m 331 255 l 331 255 b 323 87 328 214 324 141 l 355 87 b 358 207 355 126 356 168 l 359 207 l 382 112 l 413 112 l 436 207 b 440 87 439 168 440 126 l 473 87 b 466 255 471 141 469 214 l 420 255 l 398 162 l 376 255 z m 558 84 l 558 84 b 620 170 604 84 620 111 b 558 257 620 229 604 257 b 497 170 512 257 497 229 b 558 84 497 111 512 84 z m 558 228 b 587 170 582 228 587 208 b 558 112 587 133 582 112 b 530 170 535 112 530 133 b 558 228 530 208 535 228 z m 546 574 l 546 574 b 366 358 450 574 366 358 b 558 441 414 405 475 432 b 618 501 582 444 618 465 b 546 574 618 525 606 574 z m 161 514 l 161 514 b 89 441 113 514 89 478 b 161 381 89 405 125 381 b 341 297 234 381 294 358 b 161 514 341 297 270 514 z m 363 686 l 363 686 b 260 685 329 720 286 711 b 271 591 236 659 245 617 b 341 405 323 542 350 481 b 363 686 341 405 441 611 z "},"?":{"ha":926,"x_min":0,"x_max":0,"o":"m 314 359 l 622 359 b 909 707 624 524 909 444 b 459 998 909 910 727 998 b 17 617 172 998 6 876 l 307 617 b 462 743 307 725 396 743 b 590 670 537 743 590 714 b 314 359 590 551 278 624 z m 466 -19 b 626 139 553 -19 626 53 b 466 296 626 225 553 296 b 307 139 380 296 307 225 b 466 -19 307 53 380 -19 z "},"@":{"ha":692,"x_min":0,"x_max":0,"o":"m 117 228 l 117 228 b 153 170 147 228 153 207 b 117 112 153 134 147 112 b 106 113 113 112 109 112 l 106 227 b 117 228 110 228 113 228 z m 293 186 l 247 186 l 247 226 l 301 226 l 301 255 l 213 255 l 213 87 l 301 87 l 301 115 l 247 115 l 247 159 l 293 159 z m 115 84 l 115 84 b 186 170 167 84 186 111 b 116 257 186 228 168 257 b 73 252 104 257 88 255 l 73 87 b 115 84 88 84 105 84 z m 331 255 l 331 255 b 323 87 328 214 324 141 l 355 87 b 358 207 355 126 356 168 l 359 207 l 382 112 l 413 112 l 436 207 b 440 87 439 168 440 126 l 473 87 b 466 255 471 141 469 214 l 420 255 l 398 162 l 376 255 z m 558 84 l 558 84 b 620 170 604 84 620 111 b 558 257 620 229 604 257 b 497 170 512 257 497 229 b 558 84 497 111 512 84 z m 558 228 b 587 170 582 228 587 208 b 558 112 587 133 582 112 b 530 170 535 112 530 133 b 558 228 530 208 535 228 z m 546 574 l 546 574 b 366 358 450 574 366 358 b 558 441 414 405 475 432 b 618 501 582 444 618 465 b 546 574 618 525 606 574 z m 161 514 l 161 514 b 89 441 113 514 89 478 b 161 381 89 405 125 381 b 341 297 234 381 294 358 b 161 514 341 297 270 514 z m 363 686 l 363 686 b 260 685 329 720 286 711 b 271 591 236 659 245 617 b 341 405 323 542 350 481 b 363 686 341 405 441 611 z "},"A":{"ha":1176,"x_min":0,"x_max":0,"o":"m 839 0 l 1170 0 l 813 972 l 363 972 l 6 0 l 337 0 l 380 128 l 796 128 z m 458 366 l 560 671 l 616 671 l 718 366 z "},"B":{"ha":1069,"x_min":0,"x_max":0,"o":"m 890 501 l 890 520 b 1015 714 958 557 1015 604 b 642 972 1015 843 936 972 l 41 972 l 41 0 l 626 0 b 1041 274 931 0 1041 118 b 890 501 1041 385 984 454 z m 609 727 b 708 653 684 727 708 690 b 609 581 708 618 684 581 l 361 581 l 361 727 z m 616 245 l 361 245 l 361 406 l 616 406 b 716 328 691 406 716 365 b 616 245 716 292 691 245 z "},"C":{"ha":1105,"x_min":0,"x_max":0,"o":"m 569 -32 b 1082 403 809 -32 1050 72 l 777 403 b 569 244 750 294 675 244 b 341 486 442 244 341 339 b 569 728 341 633 442 728 b 777 572 675 728 750 678 l 1082 572 b 569 1005 1050 900 807 1005 b 23 486 242 1005 23 797 b 569 -32 23 175 242 -32 z "},"D":{"ha":1093,"x_min":0,"x_max":0,"o":"m 529 972 l 41 972 l 41 0 l 529 0 b 1064 486 925 0 1064 207 b 529 972 1064 766 925 972 z m 529 269 l 362 269 l 362 704 l 529 704 b 742 486 654 704 742 642 b 529 269 742 331 654 269 z "},"E":{"ha":957,"x_min":0,"x_max":0,"o":"m 41 0 l 917 0 l 917 257 l 361 257 l 361 381 l 896 381 l 896 591 l 361 591 l 361 715 l 917 715 l 917 972 l 41 972 z "},"F":{"ha":955,"x_min":0,"x_max":0,"o":"m 41 0 l 361 0 l 361 341 l 890 341 l 890 573 l 361 573 l 361 705 l 914 705 l 914 972 l 41 972 z "},"G":{"ha":1133,"x_min":0,"x_max":0,"o":"m 1087 537 l 564 537 l 564 370 l 778 370 b 576 244 745 257 624 244 b 341 486 444 244 341 339 b 586 728 341 633 442 728 b 764 632 681 728 744 681 l 1082 632 b 579 1005 1044 894 809 1005 b 23 486 241 1005 23 797 b 551 -32 23 175 252 -32 b 911 128 722 -32 844 36 l 916 0 l 1087 0 z "},"H":{"ha":1100,"x_min":0,"x_max":0,"o":"m 738 972 l 738 620 l 361 620 l 361 972 l 41 972 l 41 0 l 361 0 l 361 352 l 738 352 l 738 0 l 1059 0 l 1059 972 z "},"I":{"ha":402,"x_min":0,"x_max":0,"o":"m 41 0 l 361 0 l 361 972 l 41 972 z "},"J":{"ha":961,"x_min":0,"x_max":0,"o":"m 466 -32 b 920 424 750 -32 920 79 l 920 972 l 600 972 l 600 407 b 473 240 600 255 519 240 b 348 380 414 240 347 262 l 29 380 b 466 -32 24 57 211 -32 z "},"K":{"ha":1095,"x_min":0,"x_max":0,"o":"m 1101 0 l 693 539 l 1088 972 l 731 972 l 381 587 l 360 587 l 360 972 l 41 972 l 41 0 l 360 0 l 360 204 l 493 346 l 514 346 l 773 0 z "},"L":{"ha":920,"x_min":0,"x_max":0,"o":"m 41 0 l 880 0 l 880 267 l 361 267 l 361 972 l 41 972 z "},"M":{"ha":1229,"x_min":0,"x_max":0,"o":"m 41 0 l 346 0 l 346 431 l 372 431 l 495 0 l 734 0 l 858 431 l 883 431 l 883 0 l 1189 0 l 1189 972 l 785 972 l 626 418 l 603 418 l 444 972 l 41 972 z "},"N":{"ha":1113,"x_min":0,"x_max":0,"o":"m 41 0 l 353 0 l 353 525 l 382 525 l 713 0 l 1073 0 l 1073 972 l 760 972 l 760 447 l 731 447 l 409 972 l 41 972 z "},"O":{"ha":1148,"x_min":0,"x_max":0,"o":"m 574 -32 b 1125 486 909 -32 1125 175 b 574 1005 1125 797 909 1005 b 23 486 240 1005 23 797 b 574 -32 23 175 240 -32 z m 574 244 b 341 486 447 244 341 332 b 574 728 341 640 447 728 b 807 486 701 728 807 640 b 574 244 807 332 701 244 z "},"P":{"ha":1044,"x_min":0,"x_max":0,"o":"m 41 0 l 361 0 l 361 213 l 594 213 b 1015 593 858 213 1015 331 b 593 972 1015 854 858 972 l 41 972 z m 361 479 l 361 706 l 566 706 b 692 593 642 706 692 668 b 565 479 692 517 642 479 z "},"Q":{"ha":1148,"x_min":0,"x_max":0,"o":"m 1125 498 b 574 1005 1125 797 909 1005 b 23 486 240 1005 23 797 b 574 -32 23 175 240 -32 b 781 9 648 -32 720 -15 l 940 -135 b 1118 46 1007 -80 1065 -23 l 991 176 b 1125 498 1073 259 1125 363 z m 341 486 b 574 728 341 640 447 728 b 807 486 701 728 807 640 b 574 244 807 332 701 244 b 341 486 447 244 341 332 z "},"R":{"ha":1074,"x_min":0,"x_max":0,"o":"m 1051 0 l 877 319 b 1019 601 959 377 1019 470 b 597 972 1019 856 867 972 l 41 972 l 41 0 l 361 0 l 361 251 l 604 251 l 736 0 z m 361 706 l 575 706 b 698 598 656 706 698 667 b 575 491 698 530 656 491 l 361 491 z "},"S":{"ha":1022,"x_min":0,"x_max":0,"o":"m 503 -32 b 1001 284 837 -34 1001 72 b 543 588 1001 550 736 556 l 440 605 b 348 678 366 617 348 650 b 499 755 348 722 392 755 b 688 649 622 755 676 714 l 973 649 b 506 1005 979 927 785 1005 b 41 694 197 1005 41 887 b 446 394 41 446 262 424 l 571 374 b 683 296 666 360 683 328 b 503 218 683 251 626 216 b 306 325 365 219 309 259 l 17 325 b 503 -32 9 73 168 -31 z "},"T":{"ha":1089,"x_min":0,"x_max":0,"o":"m 1054 972 l 35 972 l 35 705 l 384 705 l 384 0 l 705 0 l 705 705 l 1054 705 z "},"U":{"ha":1088,"x_min":0,"x_max":0,"o":"m 544 -32 b 1047 426 878 -32 1047 110 l 1047 972 l 727 972 l 727 432 b 544 236 727 311 671 236 b 363 432 417 236 363 311 l 363 972 l 41 972 l 41 424 b 544 -32 41 110 209 -32 z "},"V":{"ha":1176,"x_min":0,"x_max":0,"o":"m 363 0 l 813 0 l 1170 972 l 839 972 l 605 301 l 571 301 l 337 972 l 6 972 z "},"W":{"ha":1493,"x_min":0,"x_max":0,"o":"m 212 0 l 645 0 l 733 468 l 760 468 l 848 0 l 1281 0 l 1470 972 l 1145 972 l 1041 343 l 1013 343 l 874 972 l 619 972 l 480 343 l 453 343 l 348 972 l 23 972 z "},"X":{"ha":1076,"x_min":0,"x_max":0,"o":"m 0 0 l 348 0 l 523 273 l 553 273 l 728 0 l 1076 0 l 742 485 l 742 501 l 1068 972 l 723 972 l 553 712 l 523 712 l 353 972 l 8 972 l 337 501 l 337 485 z "},"Y":{"ha":1116,"x_min":0,"x_max":0,"o":"m 1116 972 l 779 972 l 571 606 l 545 606 l 337 972 l 0 972 l 397 303 l 397 0 l 718 0 l 718 302 z "},"Z":{"ha":961,"x_min":0,"x_max":0,"o":"m 23 0 l 931 0 l 931 267 l 433 267 l 433 292 l 938 714 l 938 972 l 35 972 l 35 705 l 521 705 l 521 681 l 23 258 z "},"[":{"ha":692,"x_min":0,"x_max":0,"o":"m 117 228 l 117 228 b 153 170 147 228 153 207 b 117 112 153 134 147 112 b 106 113 113 112 109 112 l 106 227 b 117 228 110 228 113 228 z m 293 186 l 247 186 l 247 226 l 301 226 l 301 255 l 213 255 l 213 87 l 301 87 l 301 115 l 247 115 l 247 159 l 293 159 z m 115 84 l 115 84 b 186 170 167 84 186 111 b 116 257 186 228 168 257 b 73 252 104 257 88 255 l 73 87 b 115 84 88 84 105 84 z m 331 255 l 331 255 b 323 87 328 214 324 141 l 355 87 b 358 207 355 126 356 168 l 359 207 l 382 112 l 413 112 l 436 207 b 440 87 439 168 440 126 l 473 87 b 466 255 471 141 469 214 l 420 255 l 398 162 l 376 255 z m 558 84 l 558 84 b 620 170 604 84 620 111 b 558 257 620 229 604 257 b 497 170 512 257 497 229 b 558 84 497 111 512 84 z m 558 228 b 587 170 582 228 587 208 b 558 112 587 133 582 112 b 530 170 535 112 530 133 b 558 228 530 208 535 228 z m 546 574 l 546 574 b 366 358 450 574 366 358 b 558 441 414 405 475 432 b 618 501 582 444 618 465 b 546 574 618 525 606 574 z m 161 514 l 161 514 b 89 441 113 514 89 478 b 161 381 89 405 125 381 b 341 297 234 381 294 358 b 161 514 341 297 270 514 z m 363 686 l 363 686 b 260 685 329 720 286 711 b 271 591 236 659 245 617 b 341 405 323 542 350 481 b 363 686 341 405 441 611 z "},"\\":{"ha":692,"x_min":0,"x_max":0,"o":"m 117 228 l 117 228 b 153 170 147 228 153 207 b 117 112 153 134 147 112 b 106 113 113 112 109 112 l 106 227 b 117 228 110 228 113 228 z m 293 186 l 247 186 l 247 226 l 301 226 l 301 255 l 213 255 l 213 87 l 301 87 l 301 115 l 247 115 l 247 159 l 293 159 z m 115 84 l 115 84 b 186 170 167 84 186 111 b 116 257 186 228 168 257 b 73 252 104 257 88 255 l 73 87 b 115 84 88 84 105 84 z m 331 255 l 331 255 b 323 87 328 214 324 141 l 355 87 b 358 207 355 126 356 168 l 359 207 l 382 112 l 413 112 l 436 207 b 440 87 439 168 440 126 l 473 87 b 466 255 471 141 469 214 l 420 255 l 398 162 l 376 255 z m 558 84 l 558 84 b 620 170 604 84 620 111 b 558 257 620 229 604 257 b 497 170 512 257 497 229 b 558 84 497 111 512 84 z m 558 228 b 587 170 582 228 587 208 b 558 112 587 133 582 112 b 530 170 535 112 530 133 b 558 228 530 208 535 228 z m 546 574 l 546 574 b 366 358 450 574 366 358 b 558 441 414 405 475 432 b 618 501 582 444 618 465 b 546 574 618 525 606 574 z m 161 514 l 161 514 b 89 441 113 514 89 478 b 161 381 89 405 125 381 b 341 297 234 381 294 358 b 161 514 341 297 270 514 z m 363 686 l 363 686 b 260 685 329 720 286 711 b 271 591 236 659 245 617 b 341 405 323 542 350 481 b 363 686 341 405 441 611 z "},"]":{"ha":692,"x_min":0,"x_max":0,"o":"m 117 228 l 117 228 b 153 170 147 228 153 207 b 117 112 153 134 147 112 b 106 113 113 112 109 112 l 106 227 b 117 228 110 228 113 228 z m 293 186 l 247 186 l 247 226 l 301 226 l 301 255 l 213 255 l 213 87 l 301 87 l 301 115 l 247 115 l 247 159 l 293 159 z m 115 84 l 115 84 b 186 170 167 84 186 111 b 116 257 186 228 168 257 b 73 252 104 257 88 255 l 73 87 b 115 84 88 84 105 84 z m 331 255 l 331 255 b 323 87 328 214 324 141 l 355 87 b 358 207 355 126 356 168 l 359 207 l 382 112 l 413 112 l 436 207 b 440 87 439 168 440 126 l 473 87 b 466 255 471 141 469 214 l 420 255 l 398 162 l 376 255 z m 558 84 l 558 84 b 620 170 604 84 620 111 b 558 257 620 229 604 257 b 497 170 512 257 497 229 b 558 84 497 111 512 84 z m 558 228 b 587 170 582 228 587 208 b 558 112 587 133 582 112 b 530 170 535 112 530 133 b 558 228 530 208 535 228 z m 546 574 l 546 574 b 366 358 450 574 366 358 b 558 441 414 405 475 432 b 618 501 582 444 618 465 b 546 574 618 525 606 574 z m 161 514 l 161 514 b 89 441 113 514 89 478 b 161 381 89 405 125 381 b 341 297 234 381 294 358 b 161 514 341 297 270 514 z m 363 686 l 363 686 b 260 685 329 720 286 711 b 271 591 236 659 245 617 b 341 405 323 542 350 481 b 363 686 341 405 441 611 z "},"^":{"ha":692,"x_min":0,"x_max":0,"o":"m 117 228 l 117 228 b 153 170 147 228 153 207 b 117 112 153 134 147 112 b 106 113 113 112 109 112 l 106 227 b 117 228 110 228 113 228 z m 293 186 l 247 186 l 247 226 l 301 226 l 301 255 l 213 255 l 213 87 l 301 87 l 301 115 l 247 115 l 247 159 l 293 159 z m 115 84 l 115 84 b 186 170 167 84 186 111 b 116 257 186 228 168 257 b 73 252 104 257 88 255 l 73 87 b 115 84 88 84 105 84 z m 331 255 l 331 255 b 323 87 328 214 324 141 l 355 87 b 358 207 355 126 356 168 l 359 207 l 382 112 l 413 112 l 436 207 b 440 87 439 168 440 126 l 473 87 b 466 255 471 141 469 214 l 420 255 l 398 162 l 376 255 z m 558 84 l 558 84 b 620 170 604 84 620 111 b 558 257 620 229 604 257 b 497 170 512 257 497 229 b 558 84 497 111 512 84 z m 558 228 b 587 170 582 228 587 208 b 558 112 587 133 582 112 b 530 170 535 112 530 133 b 558 228 530 208 535 228 z m 546 574 l 546 574 b 366 358 450 574 366 358 b 558 441 414 405 475 432 b 618 501 582 444 618 465 b 546 574 618 525 606 574 z m 161 514 l 161 514 b 89 441 113 514 89 478 b 161 381 89 405 125 381 b 341 297 234 381 294 358 b 161 514 341 297 270 514 z m 363 686 l 363 686 b 260 685 329 720 286 711 b 271 591 236 659 245 617 b 341 405 323 542 350 481 b 363 686 341 405 441 611 z "},"_":{"ha":692,"x_min":0,"x_max":0,"o":"m 117 228 l 117 228 b 153 170 147 228 153 207 b 117 112 153 134 147 112 b 106 113 113 112 109 112 l 106 227 b 117 228 110 228 113 228 z m 293 186 l 247 186 l 247 226 l 301 226 l 301 255 l 213 255 l 213 87 l 301 87 l 301 115 l 247 115 l 247 159 l 293 159 z m 115 84 l 115 84 b 186 170 167 84 186 111 b 116 257 186 228 168 257 b 73 252 104 257 88 255 l 73 87 b 115 84 88 84 105 84 z m 331 255 l 331 255 b 323 87 328 214 324 141 l 355 87 b 358 207 355 126 356 168 l 359 207 l 382 112 l 413 112 l 436 207 b 440 87 439 168 440 126 l 473 87 b 466 255 471 141 469 214 l 420 255 l 398 162 l 376 255 z m 558 84 l 558 84 b 620 170 604 84 620 111 b 558 257 620 229 604 257 b 497 170 512 257 497 229 b 558 84 497 111 512 84 z m 558 228 b 587 170 582 228 587 208 b 558 112 587 133 582 112 b 530 170 535 112 530 133 b 558 228 530 208 535 228 z m 546 574 l 546 574 b 366 358 450 574 366 358 b 558 441 414 405 475 432 b 618 501 582 444 618 465 b 546 574 618 525 606 574 z m 161 514 l 161 514 b 89 441 113 514 89 478 b 161 381 89 405 125 381 b 341 297 234 381 294 358 b 161 514 341 297 270 514 z m 363 686 l 363 686 b 260 685 329 720 286 711 b 271 591 236 659 245 617 b 341 405 323 542 350 481 b 363 686 341 405 441 611 z "},"`":{"ha":692,"x_min":0,"x_max":0,"o":"m 117 228 l 117 228 b 153 170 147 228 153 207 b 117 112 153 134 147 112 b 106 113 113 112 109 112 l 106 227 b 117 228 110 228 113 228 z m 293 186 l 247 186 l 247 226 l 301 226 l 301 255 l 213 255 l 213 87 l 301 87 l 301 115 l 247 115 l 247 159 l 293 159 z m 115 84 l 115 84 b 186 170 167 84 186 111 b 116 257 186 228 168 257 b 73 252 104 257 88 255 l 73 87 b 115 84 88 84 105 84 z m 331 255 l 331 255 b 323 87 328 214 324 141 l 355 87 b 358 207 355 126 356 168 l 359 207 l 382 112 l 413 112 l 436 207 b 440 87 439 168 440 126 l 473 87 b 466 255 471 141 469 214 l 420 255 l 398 162 l 376 255 z m 558 84 l 558 84 b 620 170 604 84 620 111 b 558 257 620 229 604 257 b 497 170 512 257 497 229 b 558 84 497 111 512 84 z m 558 228 b 587 170 582 228 587 208 b 558 112 587 133 582 112 b 530 170 535 112 530 133 b 558 228 530 208 535 228 z m 546 574 l 546 574 b 366 358 450 574 366 358 b 558 441 414 405 475 432 b 618 501 582 444 618 465 b 546 574 618 525 606 574 z m 161 514 l 161 514 b 89 441 113 514 89 478 b 161 381 89 405 125 381 b 341 297 234 381 294 358 b 161 514 341 297 270 514 z m 363 686 l 363 686 b 260 685 329 720 286 711 b 271 591 236 659 245 617 b 341 405 323 542 350 481 b 363 686 341 405 441 611 z "},"a":{"ha":1176,"x_min":0,"x_max":0,"o":"m 839 0 l 1170 0 l 813 972 l 363 972 l 6 0 l 337 0 l 380 128 l 796 128 z m 458 366 l 560 671 l 616 671 l 718 366 z "},"b":{"ha":1069,"x_min":0,"x_max":0,"o":"m 890 501 l 890 520 b 1015 714 958 557 1015 604 b 642 972 1015 843 936 972 l 41 972 l 41 0 l 626 0 b 1041 274 931 0 1041 118 b 890 501 1041 385 984 454 z m 609 727 b 708 653 684 727 708 690 b 609 581 708 618 684 581 l 361 581 l 361 727 z m 616 245 l 361 245 l 361 406 l 616 406 b 716 328 691 406 716 365 b 616 245 716 292 691 245 z "},"c":{"ha":1105,"x_min":0,"x_max":0,"o":"m 569 -32 b 1082 403 809 -32 1050 72 l 777 403 b 569 244 750 294 675 244 b 341 486 442 244 341 339 b 569 728 341 633 442 728 b 777 572 675 728 750 678 l 1082 572 b 569 1005 1050 900 807 1005 b 23 486 242 1005 23 797 b 569 -32 23 175 242 -32 z "},"d":{"ha":1093,"x_min":0,"x_max":0,"o":"m 529 972 l 41 972 l 41 0 l 529 0 b 1064 486 925 0 1064 207 b 529 972 1064 766 925 972 z m 529 269 l 362 269 l 362 704 l 529 704 b 742 486 654 704 742 642 b 529 269 742 331 654 269 z "},"e":{"ha":957,"x_min":0,"x_max":0,"o":"m 41 0 l 917 0 l 917 257 l 361 257 l 361 381 l 896 381 l 896 591 l 361 591 l 361 715 l 917 715 l 917 972 l 41 972 z "},"f":{"ha":955,"x_min":0,"x_max":0,"o":"m 41 0 l 361 0 l 361 341 l 890 341 l 890 573 l 361 573 l 361 705 l 914 705 l 914 972 l 41 972 z "},"g":{"ha":1133,"x_min":0,"x_max":0,"o":"m 1087 537 l 564 537 l 564 370 l 778 370 b 576 244 745 257 624 244 b 341 486 444 244 341 339 b 586 728 341 633 442 728 b 764 632 681 728 744 681 l 1082 632 b 579 1005 1044 894 809 1005 b 23 486 241 1005 23 797 b 551 -32 23 175 252 -32 b 911 128 722 -32 844 36 l 916 0 l 1087 0 z "},"h":{"ha":1100,"x_min":0,"x_max":0,"o":"m 738 972 l 738 620 l 361 620 l 361 972 l 41 972 l 41 0 l 361 0 l 361 352 l 738 352 l 738 0 l 1059 0 l 1059 972 z "},"i":{"ha":402,"x_min":0,"x_max":0,"o":"m 41 0 l 361 0 l 361 972 l 41 972 z "},"j":{"ha":961,"x_min":0,"x_max":0,"o":"m 466 -32 b 920 424 750 -32 920 79 l 920 972 l 600 972 l 600 407 b 473 240 600 255 519 240 b 348 380 414 240 347 262 l 29 380 b 466 -32 24 57 211 -32 z "},"k":{"ha":1095,"x_min":0,"x_max":0,"o":"m 1101 0 l 693 539 l 1088 972 l 731 972 l 381 587 l 360 587 l 360 972 l 41 972 l 41 0 l 360 0 l 360 204 l 493 346 l 514 346 l 773 0 z "},"l":{"ha":920,"x_min":0,"x_max":0,"o":"m 41 0 l 880 0 l 880 267 l 361 267 l 361 972 l 41 972 z "},"m":{"ha":1229,"x_min":0,"x_max":0,"o":"m 41 0 l 346 0 l 346 431 l 372 431 l 495 0 l 734 0 l 858 431 l 883 431 l 883 0 l 1189 0 l 1189 972 l 785 972 l 626 418 l 603 418 l 444 972 l 41 972 z "},"n":{"ha":1113,"x_min":0,"x_max":0,"o":"m 41 0 l 353 0 l 353 525 l 382 525 l 713 0 l 1073 0 l 1073 972 l 760 972 l 760 447 l 731 447 l 409 972 l 41 972 z "},"o":{"ha":1148,"x_min":0,"x_max":0,"o":"m 574 -32 b 1125 486 909 -32 1125 175 b 574 1005 1125 797 909 1005 b 23 486 240 1005 23 797 b 574 -32 23 175 240 -32 z m 574 244 b 341 486 447 244 341 332 b 574 728 341 640 447 728 b 807 486 701 728 807 640 b 574 244 807 332 701 244 z "},"p":{"ha":1044,"x_min":0,"x_max":0,"o":"m 41 0 l 361 0 l 361 213 l 594 213 b 1015 593 858 213 1015 331 b 593 972 1015 854 858 972 l 41 972 z m 361 479 l 361 706 l 566 706 b 692 593 642 706 692 668 b 565 479 692 517 642 479 z "},"q":{"ha":1148,"x_min":0,"x_max":0,"o":"m 1125 498 b 574 1005 1125 797 909 1005 b 23 486 240 1005 23 797 b 574 -32 23 175 240 -32 b 781 9 648 -32 720 -15 l 940 -135 b 1118 46 1007 -80 1065 -23 l 991 176 b 1125 498 1073 259 1125 363 z m 341 486 b 574 728 341 640 447 728 b 807 486 701 728 807 640 b 574 244 807 332 701 244 b 341 486 447 244 341 332 z "},"r":{"ha":1074,"x_min":0,"x_max":0,"o":"m 1051 0 l 877 319 b 1019 601 959 377 1019 470 b 597 972 1019 856 867 972 l 41 972 l 41 0 l 361 0 l 361 251 l 604 251 l 736 0 z m 361 706 l 575 706 b 698 598 656 706 698 667 b 575 491 698 530 656 491 l 361 491 z "},"s":{"ha":1022,"x_min":0,"x_max":0,"o":"m 503 -32 b 1001 284 837 -34 1001 72 b 543 588 1001 550 736 556 l 440 605 b 348 678 366 617 348 650 b 499 755 348 722 392 755 b 688 649 622 755 676 714 l 973 649 b 506 1005 979 927 785 1005 b 41 694 197 1005 41 887 b 446 394 41 446 262 424 l 571 374 b 683 296 666 360 683 328 b 503 218 683 251 626 216 b 306 325 365 219 309 259 l 17 325 b 503 -32 9 73 168 -31 z "},"t":{"ha":1089,"x_min":0,"x_max":0,"o":"m 1054 972 l 35 972 l 35 705 l 384 705 l 384 0 l 705 0 l 705 705 l 1054 705 z "},"u":{"ha":1088,"x_min":0,"x_max":0,"o":"m 544 -32 b 1047 426 878 -32 1047 110 l 1047 972 l 727 972 l 727 432 b 544 236 727 311 671 236 b 363 432 417 236 363 311 l 363 972 l 41 972 l 41 424 b 544 -32 41 110 209 -32 z "},"v":{"ha":1176,"x_min":0,"x_max":0,"o":"m 363 0 l 813 0 l 1170 972 l 839 972 l 605 301 l 571 301 l 337 972 l 6 972 z "},"w":{"ha":1493,"x_min":0,"x_max":0,"o":"m 212 0 l 645 0 l 733 468 l 760 468 l 848 0 l 1281 0 l 1470 972 l 1145 972 l 1041 343 l 1013 343 l 874 972 l 619 972 l 480 343 l 453 343 l 348 972 l 23 972 z "},"x":{"ha":1076,"x_min":0,"x_max":0,"o":"m 0 0 l 348 0 l 523 273 l 553 273 l 728 0 l 1076 0 l 742 485 l 742 501 l 1068 972 l 723 972 l 553 712 l 523 712 l 353 972 l 8 972 l 337 501 l 337 485 z "},"y":{"ha":1116,"x_min":0,"x_max":0,"o":"m 1116 972 l 779 972 l 571 606 l 545 606 l 337 972 l 0 972 l 397 303 l 397 0 l 718 0 l 718 302 z "},"z":{"ha":961,"x_min":0,"x_max":0,"o":"m 23 0 l 931 0 l 931 267 l 433 267 l 433 292 l 938 714 l 938 972 l 35 972 l 35 705 l 521 705 l 521 681 l 23 258 z "},"{":{"ha":692,"x_min":0,"x_max":0,"o":"m 117 228 l 117 228 b 153 170 147 228 153 207 b 117 112 153 134 147 112 b 106 113 113 112 109 112 l 106 227 b 117 228 110 228 113 228 z m 293 186 l 247 186 l 247 226 l 301 226 l 301 255 l 213 255 l 213 87 l 301 87 l 301 115 l 247 115 l 247 159 l 293 159 z m 115 84 l 115 84 b 186 170 167 84 186 111 b 116 257 186 228 168 257 b 73 252 104 257 88 255 l 73 87 b 115 84 88 84 105 84 z m 331 255 l 331 255 b 323 87 328 214 324 141 l 355 87 b 358 207 355 126 356 168 l 359 207 l 382 112 l 413 112 l 436 207 b 440 87 439 168 440 126 l 473 87 b 466 255 471 141 469 214 l 420 255 l 398 162 l 376 255 z m 558 84 l 558 84 b 620 170 604 84 620 111 b 558 257 620 229 604 257 b 497 170 512 257 497 229 b 558 84 497 111 512 84 z m 558 228 b 587 170 582 228 587 208 b 558 112 587 133 582 112 b 530 170 535 112 530 133 b 558 228 530 208 535 228 z m 546 574 l 546 574 b 366 358 450 574 366 358 b 558 441 414 405 475 432 b 618 501 582 444 618 465 b 546 574 618 525 606 574 z m 161 514 l 161 514 b 89 441 113 514 89 478 b 161 381 89 405 125 381 b 341 297 234 381 294 358 b 161 514 341 297 270 514 z m 363 686 l 363 686 b 260 685 329 720 286 711 b 271 591 236 659 245 617 b 341 405 323 542 350 481 b 363 686 341 405 441 611 z "},"|":{"ha":692,"x_min":0,"x_max":0,"o":"m 117 228 l 117 228 b 153 170 147 228 153 207 b 117 112 153 134 147 112 b 106 113 113 112 109 112 l 106 227 b 117 228 110 228 113 228 z m 293 186 l 247 186 l 247 226 l 301 226 l 301 255 l 213 255 l 213 87 l 301 87 l 301 115 l 247 115 l 247 159 l 293 159 z m 115 84 l 115 84 b 186 170 167 84 186 111 b 116 257 186 228 168 257 b 73 252 104 257 88 255 l 73 87 b 115 84 88 84 105 84 z m 331 255 l 331 255 b 323 87 328 214 324 141 l 355 87 b 358 207 355 126 356 168 l 359 207 l 382 112 l 413 112 l 436 207 b 440 87 439 168 440 126 l 473 87 b 466 255 471 141 469 214 l 420 255 l 398 162 l 376 255 z m 558 84 l 558 84 b 620 170 604 84 620 111 b 558 257 620 229 604 257 b 497 170 512 257 497 229 b 558 84 497 111 512 84 z m 558 228 b 587 170 582 228 587 208 b 558 112 587 133 582 112 b 530 170 535 112 530 133 b 558 228 530 208 535 228 z m 546 574 l 546 574 b 366 358 450 574 366 358 b 558 441 414 405 475 432 b 618 501 582 444 618 465 b 546 574 618 525 606 574 z m 161 514 l 161 514 b 89 441 113 514 89 478 b 161 381 89 405 125 381 b 341 297 234 381 294 358 b 161 514 341 297 270 514 z m 363 686 l 363 686 b 260 685 329 720 286 711 b 271 591 236 659 245 617 b 341 405 323 542 350 481 b 363 686 341 405 441 611 z "},"}":{"ha":692,"x_min":0,"x_max":0,"o":"m 117 228 l 117 228 b 153 170 147 228 153 207 b 117 112 153 134 147 112 b 106 113 113 112 109 112 l 106 227 b 117 228 110 228 113 228 z m 293 186 l 247 186 l 247 226 l 301 226 l 301 255 l 213 255 l 213 87 l 301 87 l 301 115 l 247 115 l 247 159 l 293 159 z m 115 84 l 115 84 b 186 170 167 84 186 111 b 116 257 186 228 168 257 b 73 252 104 257 88 255 l 73 87 b 115 84 88 84 105 84 z m 331 255 l 331 255 b 323 87 328 214 324 141 l 355 87 b 358 207 355 126 356 168 l 359 207 l 382 112 l 413 112 l 436 207 b 440 87 439 168 440 126 l 473 87 b 466 255 471 141 469 214 l 420 255 l 398 162 l 376 255 z m 558 84 l 558 84 b 620 170 604 84 620 111 b 558 257 620 229 604 257 b 497 170 512 257 497 229 b 558 84 497 111 512 84 z m 558 228 b 587 170 582 228 587 208 b 558 112 587 133 582 112 b 530 170 535 112 530 133 b 558 228 530 208 535 228 z m 546 574 l 546 574 b 366 358 450 574 366 358 b 558 441 414 405 475 432 b 618 501 582 444 618 465 b 546 574 618 525 606 574 z m 161 514 l 161 514 b 89 441 113 514 89 478 b 161 381 89 405 125 381 b 341 297 234 381 294 358 b 161 514 341 297 270 514 z m 363 686 l 363 686 b 260 685 329 720 286 711 b 271 591 236 659 245 617 b 341 405 323 542 350 481 b 363 686 341 405 441 611 z "},"~":{"ha":692,"x_min":0,"x_max":0,"o":"m 117 228 l 117 228 b 153 170 147 228 153 207 b 117 112 153 134 147 112 b 106 113 113 112 109 112 l 106 227 b 117 228 110 228 113 228 z m 293 186 l 247 186 l 247 226 l 301 226 l 301 255 l 213 255 l 213 87 l 301 87 l 301 115 l 247 115 l 247 159 l 293 159 z m 115 84 l 115 84 b 186 170 167 84 186 111 b 116 257 186 228 168 257 b 73 252 104 257 88 255 l 73 87 b 115 84 88 84 105 84 z m 331 255 l 331 255 b 323 87 328 214 324 141 l 355 87 b 358 207 355 126 356 168 l 359 207 l 382 112 l 413 112 l 436 207 b 440 87 439 168 440 126 l 473 87 b 466 255 471 141 469 214 l 420 255 l 398 162 l 376 255 z m 558 84 l 558 84 b 620 170 604 84 620 111 b 558 257 620 229 604 257 b 497 170 512 257 497 229 b 558 84 497 111 512 84 z m 558 228 b 587 170 582 228 587 208 b 558 112 587 133 582 112 b 530 170 535 112 530 133 b 558 228 530 208 535 228 z m 546 574 l 546 574 b 366 358 450 574 366 358 b 558 441 414 405 475 432 b 618 501 582 444 618 465 b 546 574 618 525 606 574 z m 161 514 l 161 514 b 89 441 113 514 89 478 b 161 381 89 405 125 381 b 341 297 234 381 294 358 b 161 514 341 297 270 514 z m 363 686 l 363 686 b 260 685 329 720 286 711 b 271 591 236 659 245 617 b 341 405 323 542 350 481 b 363 686 341 405 441 611 z "}}}
